<svg width="199" height="107" viewBox="0 0 199 107" fill="none" xmlns="http://www.w3.org/2000/svg">
<path d="M92.7599 52.9311C92.6171 43.7278 89.2875 34.8587 83.3386 27.8351C77.3897 20.8114 69.1894 16.0677 60.1351 14.4123C51.0807 12.7569 41.7325 14.2922 33.6832 18.7566C25.6339 23.221 19.3816 30.3382 15.9916 38.8956C12.6016 47.453 12.2837 56.9212 15.0919 65.6867C17.9002 74.4523 23.6609 81.973 31.3925 86.9673C39.1242 91.9617 48.3483 94.1206 57.4933 93.0764C66.6383 92.0322 75.1383 87.8494 81.5451 81.2407L70.119 70.1638C66.2749 74.129 61.1749 76.6387 55.6879 77.2652C50.2009 77.8918 44.6664 76.5964 40.0274 73.5998C35.3885 70.6032 31.932 66.0908 30.2471 60.8314C28.5621 55.5721 28.7529 49.8912 30.7869 44.7568C32.8209 39.6223 36.5723 35.352 41.4019 32.6733C46.2314 29.9947 51.8404 29.0735 57.273 30.0668C62.7056 31.06 67.6257 33.9062 71.1951 38.1204C74.7644 42.3346 76.7622 47.6561 76.8479 53.178L92.7599 52.9311Z" fill="#5BAFCA"/>
<path d="M105.093 65.9451C106.18 66.1767 107.053 66.7203 107.712 67.5757C108.372 68.4133 108.701 69.3756 108.701 70.4627C108.701 72.0309 108.149 73.2784 107.044 74.2051C105.957 75.1139 104.433 75.5684 102.473 75.5684H93.7319V56.8029H102.179C104.086 56.8029 105.574 57.2395 106.643 58.1128C107.73 58.986 108.274 60.1711 108.274 61.668C108.274 62.7729 107.98 63.6907 107.392 64.4214C106.821 65.152 106.055 65.6599 105.093 65.9451ZM98.3029 64.3946H101.297C102.045 64.3946 102.616 64.2343 103.008 63.9135C103.418 63.5749 103.622 63.0848 103.622 62.4433C103.622 61.8017 103.418 61.3116 103.008 60.973C102.616 60.6344 102.045 60.4651 101.297 60.4651H98.3029V64.3946ZM101.671 71.8794C102.437 71.8794 103.025 71.7101 103.435 71.3715C103.863 71.0151 104.077 70.5072 104.077 69.8478C104.077 69.1885 103.854 68.6717 103.409 68.2974C102.981 67.9232 102.384 67.7361 101.618 67.7361H98.3029V71.8794H101.671ZM115.844 56.8029V68.0301C115.844 69.1528 116.12 70.0171 116.672 70.6231C117.225 71.229 118.035 71.5319 119.105 71.5319C120.174 71.5319 120.994 71.229 121.564 70.6231C122.134 70.0171 122.419 69.1528 122.419 68.0301V56.8029H126.991V68.0034C126.991 69.6785 126.634 71.0953 125.921 72.2537C125.208 73.412 124.246 74.2853 123.034 74.8733C121.84 75.4614 120.504 75.7555 119.025 75.7555C117.545 75.7555 116.218 75.4703 115.042 74.9001C113.883 74.312 112.965 73.4388 112.288 72.2804C111.611 71.1042 111.272 69.6785 111.272 68.0034V56.8029H115.844ZM137.231 56.8029C139.209 56.8029 140.937 57.195 142.417 57.9791C143.896 58.7632 145.036 59.8681 145.838 61.2938C146.658 62.7017 147.068 64.3323 147.068 66.1856C147.068 68.0212 146.658 69.6518 145.838 71.0775C145.036 72.5032 143.887 73.6081 142.39 74.3922C140.911 75.1763 139.191 75.5684 137.231 75.5684H130.2V56.8029H137.231ZM136.937 71.6121C138.665 71.6121 140.011 71.1399 140.973 70.1954C141.935 69.2508 142.417 67.9143 142.417 66.1856C142.417 64.457 141.935 63.1115 140.973 62.1492C140.011 61.1869 138.665 60.7057 136.937 60.7057H134.771V71.6121H136.937ZM162.079 62.7373C161.741 62.1136 161.251 61.6413 160.609 61.3205C159.985 60.9819 159.246 60.8126 158.39 60.8126C156.911 60.8126 155.726 61.3027 154.835 62.2829C153.944 63.2452 153.498 64.5372 153.498 66.1589C153.498 67.8875 153.962 69.2419 154.888 70.2221C155.833 71.1844 157.125 71.6656 158.765 71.6656C159.887 71.6656 160.832 71.3804 161.598 70.8102C162.382 70.2399 162.952 69.4201 163.309 68.3509H157.508V64.9827H167.452V69.233C167.114 70.3736 166.534 71.4339 165.715 72.4141C164.913 73.3942 163.888 74.1872 162.641 74.7931C161.393 75.3991 159.985 75.702 158.417 75.702C156.564 75.702 154.906 75.301 153.445 74.4991C152.001 73.6793 150.87 72.5477 150.05 71.1042C149.248 69.6607 148.847 68.0123 148.847 66.1589C148.847 64.3055 149.248 62.6571 150.05 61.2136C150.87 59.7523 152.001 58.6207 153.445 57.8187C154.888 56.999 156.537 56.5891 158.39 56.5891C160.636 56.5891 162.525 57.1326 164.057 58.2197C165.608 59.3068 166.632 60.8126 167.131 62.7373H162.079ZM174.555 60.4651V64.261H180.677V67.7895H174.555V71.9062H181.479V75.5684H169.984V56.8029H181.479V60.4651H174.555ZM197.946 56.8029V60.4651H192.974V75.5684H188.402V60.4651H183.43V56.8029H197.946Z" fill="#383838"/>
</svg>
